<mxfile host="www.draw.io" modified="2019-12-17T05:35:09.562Z" agent="Mozilla/5.0 (Macintosh; Intel Mac OS X 10_15_0) AppleWebKit/537.36 (KHTML, like Gecko) Chrome/78.0.3904.108 Safari/537.36" etag="klIpju1IsoBAcVTRSh0B" version="12.4.2" type="github" pages="1">
  <diagram id="akVjrCYoei7Hbz9WHayu" name="Page-1">
    <mxGraphModel dx="1186" dy="1830" grid="1" gridSize="10" guides="1" tooltips="1" connect="1" arrows="1" fold="1" page="1" pageScale="1" pageWidth="827" pageHeight="1169" math="0" shadow="0">
      <root>
        <mxCell id="0"/>
        <mxCell id="1" parent="0"/>
        <mxCell id="aqeKOGOdfNGKAmlKt-DT-35" style="edgeStyle=orthogonalEdgeStyle;rounded=0;orthogonalLoop=1;jettySize=auto;html=1;entryX=0;entryY=0.25;entryDx=0;entryDy=0;exitX=1;exitY=0.054;exitDx=0;exitDy=0;exitPerimeter=0;" parent="1" source="aqeKOGOdfNGKAmlKt-DT-33" target="aqeKOGOdfNGKAmlKt-DT-34" edge="1">
          <mxGeometry relative="1" as="geometry"/>
        </mxCell>
        <mxCell id="aqeKOGOdfNGKAmlKt-DT-33" value="" style="rounded=0;whiteSpace=wrap;html=1;fillColor=#d5e8d4;strokeColor=#82b366;" parent="1" vertex="1">
          <mxGeometry x="830" width="630" height="1340" as="geometry"/>
        </mxCell>
        <mxCell id="aqeKOGOdfNGKAmlKt-DT-32" value="" style="rounded=0;whiteSpace=wrap;html=1;fillColor=#f5f5f5;strokeColor=#666666;fontColor=#333333;" parent="1" vertex="1">
          <mxGeometry x="50" width="530" height="860" as="geometry"/>
        </mxCell>
        <mxCell id="aqeKOGOdfNGKAmlKt-DT-3" value="" style="edgeStyle=orthogonalEdgeStyle;rounded=0;orthogonalLoop=1;jettySize=auto;html=1;" parent="1" source="aqeKOGOdfNGKAmlKt-DT-1" target="aqeKOGOdfNGKAmlKt-DT-2" edge="1">
          <mxGeometry relative="1" as="geometry"/>
        </mxCell>
        <mxCell id="aqeKOGOdfNGKAmlKt-DT-1" value="mysql全量查找空闲司机" style="rounded=1;whiteSpace=wrap;html=1;" parent="1" vertex="1">
          <mxGeometry x="120" y="160" width="120" height="60" as="geometry"/>
        </mxCell>
        <mxCell id="aqeKOGOdfNGKAmlKt-DT-7" value="" style="edgeStyle=orthogonalEdgeStyle;rounded=0;orthogonalLoop=1;jettySize=auto;html=1;" parent="1" source="aqeKOGOdfNGKAmlKt-DT-2" target="aqeKOGOdfNGKAmlKt-DT-6" edge="1">
          <mxGeometry relative="1" as="geometry"/>
        </mxCell>
        <mxCell id="aqeKOGOdfNGKAmlKt-DT-2" value="遍历空闲司机，&lt;br&gt;redis 查找出对应司机位置" style="rounded=1;whiteSpace=wrap;html=1;" parent="1" vertex="1">
          <mxGeometry x="120" y="270" width="120" height="60" as="geometry"/>
        </mxCell>
        <mxCell id="aqeKOGOdfNGKAmlKt-DT-9" value="" style="edgeStyle=orthogonalEdgeStyle;rounded=0;orthogonalLoop=1;jettySize=auto;html=1;" parent="1" source="aqeKOGOdfNGKAmlKt-DT-6" target="aqeKOGOdfNGKAmlKt-DT-8" edge="1">
          <mxGeometry relative="1" as="geometry"/>
        </mxCell>
        <mxCell id="aqeKOGOdfNGKAmlKt-DT-6" value="mysql 查找出调度半径" style="rounded=1;whiteSpace=wrap;html=1;" parent="1" vertex="1">
          <mxGeometry x="120" y="380" width="120" height="60" as="geometry"/>
        </mxCell>
        <mxCell id="aqeKOGOdfNGKAmlKt-DT-11" value="" style="edgeStyle=orthogonalEdgeStyle;rounded=0;orthogonalLoop=1;jettySize=auto;html=1;" parent="1" source="aqeKOGOdfNGKAmlKt-DT-8" target="aqeKOGOdfNGKAmlKt-DT-10" edge="1">
          <mxGeometry relative="1" as="geometry"/>
        </mxCell>
        <mxCell id="aqeKOGOdfNGKAmlKt-DT-8" value="将所有空闲司机及位置添加到redis的geoRadius中" style="rounded=1;whiteSpace=wrap;html=1;" parent="1" vertex="1">
          <mxGeometry x="120" y="500" width="120" height="60" as="geometry"/>
        </mxCell>
        <mxCell id="aqeKOGOdfNGKAmlKt-DT-13" value="" style="edgeStyle=orthogonalEdgeStyle;rounded=0;orthogonalLoop=1;jettySize=auto;html=1;" parent="1" source="aqeKOGOdfNGKAmlKt-DT-10" target="aqeKOGOdfNGKAmlKt-DT-12" edge="1">
          <mxGeometry relative="1" as="geometry"/>
        </mxCell>
        <mxCell id="aqeKOGOdfNGKAmlKt-DT-10" value="从redis的geoRadius 中圈司机" style="rounded=1;whiteSpace=wrap;html=1;" parent="1" vertex="1">
          <mxGeometry x="120" y="640" width="120" height="60" as="geometry"/>
        </mxCell>
        <mxCell id="aqeKOGOdfNGKAmlKt-DT-12" value="遍历圈中司机集合并构造结果集" style="rounded=1;whiteSpace=wrap;html=1;" parent="1" vertex="1">
          <mxGeometry x="120" y="780" width="120" height="60" as="geometry"/>
        </mxCell>
        <mxCell id="aqeKOGOdfNGKAmlKt-DT-5" value="" style="edgeStyle=orthogonalEdgeStyle;rounded=0;orthogonalLoop=1;jettySize=auto;html=1;" parent="1" source="aqeKOGOdfNGKAmlKt-DT-4" target="aqeKOGOdfNGKAmlKt-DT-1" edge="1">
          <mxGeometry relative="1" as="geometry"/>
        </mxCell>
        <mxCell id="aqeKOGOdfNGKAmlKt-DT-4" value="询价" style="rounded=1;whiteSpace=wrap;html=1;" parent="1" vertex="1">
          <mxGeometry x="120" y="50" width="120" height="60" as="geometry"/>
        </mxCell>
        <mxCell id="aqeKOGOdfNGKAmlKt-DT-14" value="当前代码逻辑" style="text;html=1;strokeColor=none;fillColor=none;align=center;verticalAlign=middle;whiteSpace=wrap;rounded=0;" parent="1" vertex="1">
          <mxGeometry x="340" width="107" height="20" as="geometry"/>
        </mxCell>
        <mxCell id="aqeKOGOdfNGKAmlKt-DT-17" value="优化后逻辑" style="text;html=1;strokeColor=none;fillColor=none;align=center;verticalAlign=middle;whiteSpace=wrap;rounded=0;" parent="1" vertex="1">
          <mxGeometry x="620" y="290" width="130" height="20" as="geometry"/>
        </mxCell>
        <mxCell id="aqeKOGOdfNGKAmlKt-DT-24" value="" style="edgeStyle=orthogonalEdgeStyle;rounded=0;orthogonalLoop=1;jettySize=auto;html=1;" parent="1" source="aqeKOGOdfNGKAmlKt-DT-20" target="aqeKOGOdfNGKAmlKt-DT-21" edge="1">
          <mxGeometry relative="1" as="geometry"/>
        </mxCell>
        <mxCell id="aqeKOGOdfNGKAmlKt-DT-20" value="滴滴下单" style="rounded=1;whiteSpace=wrap;html=1;" parent="1" vertex="1">
          <mxGeometry x="960" y="50" width="120" height="60" as="geometry"/>
        </mxCell>
        <mxCell id="aqeKOGOdfNGKAmlKt-DT-23" value="" style="edgeStyle=orthogonalEdgeStyle;rounded=0;orthogonalLoop=1;jettySize=auto;html=1;exitX=0.5;exitY=1;exitDx=0;exitDy=0;" parent="1" source="aqeKOGOdfNGKAmlKt-DT-20" target="aqeKOGOdfNGKAmlKt-DT-22" edge="1">
          <mxGeometry relative="1" as="geometry"/>
        </mxCell>
        <mxCell id="aqeKOGOdfNGKAmlKt-DT-26" value="" style="edgeStyle=orthogonalEdgeStyle;rounded=0;orthogonalLoop=1;jettySize=auto;html=1;" parent="1" source="aqeKOGOdfNGKAmlKt-DT-21" target="aqeKOGOdfNGKAmlKt-DT-25" edge="1">
          <mxGeometry relative="1" as="geometry"/>
        </mxCell>
        <mxCell id="aqeKOGOdfNGKAmlKt-DT-21" value="redis 圈出司机ID&amp;nbsp;" style="rounded=1;whiteSpace=wrap;html=1;" parent="1" vertex="1">
          <mxGeometry x="870" y="230" width="120" height="60" as="geometry"/>
        </mxCell>
        <mxCell id="aqeKOGOdfNGKAmlKt-DT-29" value="" style="edgeStyle=orthogonalEdgeStyle;rounded=0;orthogonalLoop=1;jettySize=auto;html=1;" parent="1" source="aqeKOGOdfNGKAmlKt-DT-25" target="aqeKOGOdfNGKAmlKt-DT-28" edge="1">
          <mxGeometry relative="1" as="geometry"/>
        </mxCell>
        <mxCell id="aqeKOGOdfNGKAmlKt-DT-25" value="取ID交集" style="rounded=1;whiteSpace=wrap;html=1;" parent="1" vertex="1">
          <mxGeometry x="960" y="450" width="120" height="60" as="geometry"/>
        </mxCell>
        <mxCell id="aqeKOGOdfNGKAmlKt-DT-38" value="" style="edgeStyle=orthogonalEdgeStyle;rounded=0;orthogonalLoop=1;jettySize=auto;html=1;" parent="1" source="aqeKOGOdfNGKAmlKt-DT-39" target="aqeKOGOdfNGKAmlKt-DT-37" edge="1">
          <mxGeometry relative="1" as="geometry"/>
        </mxCell>
        <mxCell id="aqeKOGOdfNGKAmlKt-DT-45" value="否" style="text;html=1;align=center;verticalAlign=middle;resizable=0;points=[];;labelBackgroundColor=#ffffff;" parent="aqeKOGOdfNGKAmlKt-DT-38" vertex="1" connectable="0">
          <mxGeometry x="0.1556" y="4" relative="1" as="geometry">
            <mxPoint as="offset"/>
          </mxGeometry>
        </mxCell>
        <mxCell id="aqeKOGOdfNGKAmlKt-DT-28" value="分布式锁司机ID" style="rounded=1;whiteSpace=wrap;html=1;" parent="1" vertex="1">
          <mxGeometry x="935" y="590" width="170" height="60" as="geometry"/>
        </mxCell>
        <mxCell id="aqeKOGOdfNGKAmlKt-DT-49" value="" style="edgeStyle=orthogonalEdgeStyle;rounded=0;orthogonalLoop=1;jettySize=auto;html=1;" parent="1" source="aqeKOGOdfNGKAmlKt-DT-37" target="aqeKOGOdfNGKAmlKt-DT-48" edge="1">
          <mxGeometry relative="1" as="geometry"/>
        </mxCell>
        <mxCell id="aqeKOGOdfNGKAmlKt-DT-37" value="未获取到司机锁，则找下一个" style="rounded=1;whiteSpace=wrap;html=1;" parent="1" vertex="1">
          <mxGeometry x="870" y="840" width="170" height="60" as="geometry"/>
        </mxCell>
        <mxCell id="aqeKOGOdfNGKAmlKt-DT-59" style="edgeStyle=orthogonalEdgeStyle;rounded=0;orthogonalLoop=1;jettySize=auto;html=1;" parent="1" source="aqeKOGOdfNGKAmlKt-DT-46" target="aqeKOGOdfNGKAmlKt-DT-58" edge="1">
          <mxGeometry relative="1" as="geometry"/>
        </mxCell>
        <mxCell id="aqeKOGOdfNGKAmlKt-DT-46" value="遍历完成未获取到锁，&lt;br&gt;调度任务进入调度线程池持续调度" style="rounded=1;whiteSpace=wrap;html=1;" parent="1" vertex="1">
          <mxGeometry x="870" y="1100" width="170" height="60" as="geometry"/>
        </mxCell>
        <mxCell id="aqeKOGOdfNGKAmlKt-DT-27" style="edgeStyle=orthogonalEdgeStyle;rounded=0;orthogonalLoop=1;jettySize=auto;html=1;entryX=0.5;entryY=0;entryDx=0;entryDy=0;" parent="1" source="aqeKOGOdfNGKAmlKt-DT-22" target="aqeKOGOdfNGKAmlKt-DT-25" edge="1">
          <mxGeometry relative="1" as="geometry"/>
        </mxCell>
        <mxCell id="aqeKOGOdfNGKAmlKt-DT-22" value="redis 找出空闲司机ID&amp;nbsp;" style="rounded=1;whiteSpace=wrap;html=1;" parent="1" vertex="1">
          <mxGeometry x="1050" y="230" width="120" height="60" as="geometry"/>
        </mxCell>
        <mxCell id="aqeKOGOdfNGKAmlKt-DT-30" value="" style="endArrow=classic;html=1;" parent="1" edge="1">
          <mxGeometry width="50" height="50" relative="1" as="geometry">
            <mxPoint x="590" y="320" as="sourcePoint"/>
            <mxPoint x="830" y="320" as="targetPoint"/>
          </mxGeometry>
        </mxCell>
        <mxCell id="aqeKOGOdfNGKAmlKt-DT-34" value="1.听单中司机集合&lt;br&gt;2.司机位置集合维护（tcp 断联离线，对应driverId需从听单司机集合中移除）" style="shape=document;whiteSpace=wrap;html=1;boundedLbl=1;align=left;" parent="1" vertex="1">
          <mxGeometry x="1610" y="46" width="180" height="103" as="geometry"/>
        </mxCell>
        <mxCell id="aqeKOGOdfNGKAmlKt-DT-36" value="前置依赖" style="text;html=1;align=center;verticalAlign=middle;resizable=0;points=[];;autosize=1;" parent="1" vertex="1">
          <mxGeometry x="1510" y="46" width="60" height="20" as="geometry"/>
        </mxCell>
        <mxCell id="aqeKOGOdfNGKAmlKt-DT-42" value="" style="edgeStyle=orthogonalEdgeStyle;rounded=0;orthogonalLoop=1;jettySize=auto;html=1;entryX=0.5;entryY=0;entryDx=0;entryDy=0;" parent="1" source="aqeKOGOdfNGKAmlKt-DT-39" target="aqeKOGOdfNGKAmlKt-DT-43" edge="1">
          <mxGeometry relative="1" as="geometry">
            <mxPoint x="1140" y="730" as="targetPoint"/>
          </mxGeometry>
        </mxCell>
        <mxCell id="aqeKOGOdfNGKAmlKt-DT-44" value="是" style="text;html=1;align=center;verticalAlign=middle;resizable=0;points=[];;labelBackgroundColor=#ffffff;" parent="aqeKOGOdfNGKAmlKt-DT-42" vertex="1" connectable="0">
          <mxGeometry x="-0.4381" y="-1" relative="1" as="geometry">
            <mxPoint as="offset"/>
          </mxGeometry>
        </mxCell>
        <mxCell id="aqeKOGOdfNGKAmlKt-DT-39" value="是否获取到锁" style="rhombus;whiteSpace=wrap;html=1;" parent="1" vertex="1">
          <mxGeometry x="980" y="690" width="80" height="80" as="geometry"/>
        </mxCell>
        <mxCell id="aqeKOGOdfNGKAmlKt-DT-40" value="" style="edgeStyle=orthogonalEdgeStyle;rounded=0;orthogonalLoop=1;jettySize=auto;html=1;" parent="1" source="aqeKOGOdfNGKAmlKt-DT-28" target="aqeKOGOdfNGKAmlKt-DT-39" edge="1">
          <mxGeometry relative="1" as="geometry">
            <mxPoint x="1020" y="650" as="sourcePoint"/>
            <mxPoint x="1020" y="840" as="targetPoint"/>
          </mxGeometry>
        </mxCell>
        <mxCell id="aqeKOGOdfNGKAmlKt-DT-70" value="" style="edgeStyle=orthogonalEdgeStyle;rounded=0;orthogonalLoop=1;jettySize=auto;html=1;" parent="1" source="aqeKOGOdfNGKAmlKt-DT-43" target="aqeKOGOdfNGKAmlKt-DT-69" edge="1">
          <mxGeometry relative="1" as="geometry"/>
        </mxCell>
        <mxCell id="aqeKOGOdfNGKAmlKt-DT-43" value="组装司机、及调度距离等信息" style="rounded=1;whiteSpace=wrap;html=1;" parent="1" vertex="1">
          <mxGeometry x="1080" y="840" width="160" height="60" as="geometry"/>
        </mxCell>
        <mxCell id="aqeKOGOdfNGKAmlKt-DT-69" value="调用DD接口抢单" style="rounded=1;whiteSpace=wrap;html=1;" parent="1" vertex="1">
          <mxGeometry x="1280" y="840" width="160" height="60" as="geometry"/>
        </mxCell>
        <mxCell id="aqeKOGOdfNGKAmlKt-DT-52" style="edgeStyle=orthogonalEdgeStyle;rounded=0;orthogonalLoop=1;jettySize=auto;html=1;entryX=0.5;entryY=0;entryDx=0;entryDy=0;" parent="1" source="aqeKOGOdfNGKAmlKt-DT-48" target="aqeKOGOdfNGKAmlKt-DT-46" edge="1">
          <mxGeometry relative="1" as="geometry"/>
        </mxCell>
        <mxCell id="aqeKOGOdfNGKAmlKt-DT-56" value="否" style="text;html=1;align=center;verticalAlign=middle;resizable=0;points=[];;labelBackgroundColor=#ffffff;" parent="aqeKOGOdfNGKAmlKt-DT-52" vertex="1" connectable="0">
          <mxGeometry x="-0.4" y="-2" relative="1" as="geometry">
            <mxPoint as="offset"/>
          </mxGeometry>
        </mxCell>
        <mxCell id="aqeKOGOdfNGKAmlKt-DT-54" style="edgeStyle=orthogonalEdgeStyle;rounded=0;orthogonalLoop=1;jettySize=auto;html=1;" parent="1" source="aqeKOGOdfNGKAmlKt-DT-48" target="aqeKOGOdfNGKAmlKt-DT-43" edge="1">
          <mxGeometry relative="1" as="geometry"/>
        </mxCell>
        <mxCell id="aqeKOGOdfNGKAmlKt-DT-55" value="是" style="text;html=1;align=center;verticalAlign=middle;resizable=0;points=[];;labelBackgroundColor=#ffffff;" parent="aqeKOGOdfNGKAmlKt-DT-54" vertex="1" connectable="0">
          <mxGeometry x="-0.4776" y="-2" relative="1" as="geometry">
            <mxPoint as="offset"/>
          </mxGeometry>
        </mxCell>
        <mxCell id="aqeKOGOdfNGKAmlKt-DT-48" value="是否调度到司机" style="rhombus;whiteSpace=wrap;html=1;" parent="1" vertex="1">
          <mxGeometry x="915" y="940" width="80" height="80" as="geometry"/>
        </mxCell>
        <mxCell id="aqeKOGOdfNGKAmlKt-DT-60" style="edgeStyle=orthogonalEdgeStyle;rounded=0;orthogonalLoop=1;jettySize=auto;html=1;entryX=0.638;entryY=1.033;entryDx=0;entryDy=0;entryPerimeter=0;" parent="1" source="aqeKOGOdfNGKAmlKt-DT-58" target="aqeKOGOdfNGKAmlKt-DT-43" edge="1">
          <mxGeometry relative="1" as="geometry"/>
        </mxCell>
        <mxCell id="aqeKOGOdfNGKAmlKt-DT-61" value="是" style="text;html=1;align=center;verticalAlign=middle;resizable=0;points=[];;labelBackgroundColor=#ffffff;" parent="aqeKOGOdfNGKAmlKt-DT-60" vertex="1" connectable="0">
          <mxGeometry x="-0.1277" relative="1" as="geometry">
            <mxPoint as="offset"/>
          </mxGeometry>
        </mxCell>
        <mxCell id="aqeKOGOdfNGKAmlKt-DT-63" value="" style="edgeStyle=orthogonalEdgeStyle;rounded=0;orthogonalLoop=1;jettySize=auto;html=1;" parent="1" source="aqeKOGOdfNGKAmlKt-DT-58" edge="1">
          <mxGeometry relative="1" as="geometry">
            <mxPoint x="1182" y="1250" as="targetPoint"/>
          </mxGeometry>
        </mxCell>
        <mxCell id="aqeKOGOdfNGKAmlKt-DT-58" value="是否调度到司机" style="rhombus;whiteSpace=wrap;html=1;" parent="1" vertex="1">
          <mxGeometry x="1142" y="1090" width="80" height="80" as="geometry"/>
        </mxCell>
        <mxCell id="aqeKOGOdfNGKAmlKt-DT-64" value="最终失败" style="rounded=1;whiteSpace=wrap;html=1;" parent="1" vertex="1">
          <mxGeometry x="1100" y="1220" width="160" height="60" as="geometry"/>
        </mxCell>
        <mxCell id="aqeKOGOdfNGKAmlKt-DT-74" value="" style="edgeStyle=orthogonalEdgeStyle;rounded=0;orthogonalLoop=1;jettySize=auto;html=1;" parent="1" source="aqeKOGOdfNGKAmlKt-DT-72" target="aqeKOGOdfNGKAmlKt-DT-73" edge="1">
          <mxGeometry relative="1" as="geometry"/>
        </mxCell>
        <mxCell id="aqeKOGOdfNGKAmlKt-DT-72" value="下单" style="rounded=1;whiteSpace=wrap;html=1;" parent="1" vertex="1">
          <mxGeometry x="394" y="46" width="120" height="60" as="geometry"/>
        </mxCell>
        <mxCell id="aqeKOGOdfNGKAmlKt-DT-76" value="" style="edgeStyle=orthogonalEdgeStyle;rounded=0;orthogonalLoop=1;jettySize=auto;html=1;" parent="1" source="aqeKOGOdfNGKAmlKt-DT-73" edge="1">
          <mxGeometry relative="1" as="geometry">
            <mxPoint x="453.5" y="274" as="targetPoint"/>
          </mxGeometry>
        </mxCell>
        <mxCell id="aqeKOGOdfNGKAmlKt-DT-73" value="获取预估单调度司机列表" style="rounded=1;whiteSpace=wrap;html=1;" parent="1" vertex="1">
          <mxGeometry x="393.5" y="160" width="120" height="60" as="geometry"/>
        </mxCell>
        <mxCell id="aqeKOGOdfNGKAmlKt-DT-78" value="" style="edgeStyle=orthogonalEdgeStyle;rounded=0;orthogonalLoop=1;jettySize=auto;html=1;" parent="1" target="aqeKOGOdfNGKAmlKt-DT-77" edge="1">
          <mxGeometry relative="1" as="geometry">
            <mxPoint x="453.5" y="334" as="sourcePoint"/>
          </mxGeometry>
        </mxCell>
        <mxCell id="aqeKOGOdfNGKAmlKt-DT-83" value="是" style="text;html=1;align=center;verticalAlign=middle;resizable=0;points=[];;labelBackgroundColor=#ffffff;" parent="aqeKOGOdfNGKAmlKt-DT-78" vertex="1" connectable="0">
          <mxGeometry x="0.0529" y="2" relative="1" as="geometry">
            <mxPoint as="offset"/>
          </mxGeometry>
        </mxCell>
        <mxCell id="aqeKOGOdfNGKAmlKt-DT-86" value="" style="edgeStyle=orthogonalEdgeStyle;rounded=0;orthogonalLoop=1;jettySize=auto;html=1;" parent="1" source="aqeKOGOdfNGKAmlKt-DT-77" target="aqeKOGOdfNGKAmlKt-DT-85" edge="1">
          <mxGeometry relative="1" as="geometry"/>
        </mxCell>
        <mxCell id="aqeKOGOdfNGKAmlKt-DT-77" value="组装司机、及调度距离等信息" style="rounded=1;whiteSpace=wrap;html=1;" parent="1" vertex="1">
          <mxGeometry x="393.5" y="414" width="120" height="60" as="geometry"/>
        </mxCell>
        <mxCell id="aqeKOGOdfNGKAmlKt-DT-88" value="" style="edgeStyle=orthogonalEdgeStyle;rounded=0;orthogonalLoop=1;jettySize=auto;html=1;" parent="1" source="aqeKOGOdfNGKAmlKt-DT-85" target="aqeKOGOdfNGKAmlKt-DT-87" edge="1">
          <mxGeometry relative="1" as="geometry"/>
        </mxCell>
        <mxCell id="aqeKOGOdfNGKAmlKt-DT-85" value="组装司机、及调度距离等信息" style="rounded=1;whiteSpace=wrap;html=1;" parent="1" vertex="1">
          <mxGeometry x="393.5" y="554" width="120" height="60" as="geometry"/>
        </mxCell>
        <mxCell id="aqeKOGOdfNGKAmlKt-DT-81" value="" style="edgeStyle=orthogonalEdgeStyle;rounded=0;orthogonalLoop=1;jettySize=auto;html=1;entryX=1;entryY=0.5;entryDx=0;entryDy=0;" parent="1" source="aqeKOGOdfNGKAmlKt-DT-79" target="aqeKOGOdfNGKAmlKt-DT-1" edge="1">
          <mxGeometry relative="1" as="geometry">
            <mxPoint x="370" y="310" as="targetPoint"/>
          </mxGeometry>
        </mxCell>
        <mxCell id="aqeKOGOdfNGKAmlKt-DT-84" value="否/循环调度" style="text;html=1;align=center;verticalAlign=middle;resizable=0;points=[];;labelBackgroundColor=#ffffff;" parent="aqeKOGOdfNGKAmlKt-DT-81" vertex="1" connectable="0">
          <mxGeometry x="0.0394" y="-2" relative="1" as="geometry">
            <mxPoint as="offset"/>
          </mxGeometry>
        </mxCell>
        <mxCell id="aqeKOGOdfNGKAmlKt-DT-79" value="缓存是否存在" style="rhombus;whiteSpace=wrap;html=1;" parent="1" vertex="1">
          <mxGeometry x="414" y="270" width="80" height="80" as="geometry"/>
        </mxCell>
        <mxCell id="aqeKOGOdfNGKAmlKt-DT-87" value="调用DD接口抢单" style="rounded=1;whiteSpace=wrap;html=1;" parent="1" vertex="1">
          <mxGeometry x="373.5" y="694" width="160" height="60" as="geometry"/>
        </mxCell>
        <mxCell id="wbN2S33Gr776LBhfB90m-5" style="edgeStyle=orthogonalEdgeStyle;rounded=0;orthogonalLoop=1;jettySize=auto;html=1;entryX=1;entryY=0.33;entryDx=0;entryDy=0;entryPerimeter=0;" parent="1" source="wbN2S33Gr776LBhfB90m-1" target="aqeKOGOdfNGKAmlKt-DT-34" edge="1">
          <mxGeometry relative="1" as="geometry"/>
        </mxCell>
        <mxCell id="wbN2S33Gr776LBhfB90m-11" style="edgeStyle=orthogonalEdgeStyle;rounded=0;orthogonalLoop=1;jettySize=auto;html=1;entryX=1;entryY=0.5;entryDx=0;entryDy=0;" parent="1" source="wbN2S33Gr776LBhfB90m-1" target="wbN2S33Gr776LBhfB90m-10" edge="1">
          <mxGeometry relative="1" as="geometry"/>
        </mxCell>
        <mxCell id="wbN2S33Gr776LBhfB90m-1" value="TCP server" style="rounded=0;whiteSpace=wrap;html=1;" parent="1" vertex="1">
          <mxGeometry x="1990" y="50" width="120" height="60" as="geometry"/>
        </mxCell>
        <mxCell id="wbN2S33Gr776LBhfB90m-12" style="edgeStyle=orthogonalEdgeStyle;rounded=0;orthogonalLoop=1;jettySize=auto;html=1;entryX=0.5;entryY=0;entryDx=0;entryDy=0;" parent="1" source="wbN2S33Gr776LBhfB90m-6" target="aqeKOGOdfNGKAmlKt-DT-34" edge="1">
          <mxGeometry relative="1" as="geometry">
            <mxPoint x="1700" y="40" as="targetPoint"/>
            <Array as="points">
              <mxPoint x="1700" y="-110"/>
            </Array>
          </mxGeometry>
        </mxCell>
        <mxCell id="wbN2S33Gr776LBhfB90m-6" value="定时任务扫描保证redis /db 数据一致性" style="rounded=0;whiteSpace=wrap;html=1;" parent="1" vertex="1">
          <mxGeometry x="1990" y="-140" width="120" height="60" as="geometry"/>
        </mxCell>
        <mxCell id="wbN2S33Gr776LBhfB90m-3" style="edgeStyle=orthogonalEdgeStyle;rounded=0;orthogonalLoop=1;jettySize=auto;html=1;entryX=0.5;entryY=1;entryDx=0;entryDy=0;" parent="1" source="wbN2S33Gr776LBhfB90m-2" target="wbN2S33Gr776LBhfB90m-1" edge="1">
          <mxGeometry relative="1" as="geometry"/>
        </mxCell>
        <mxCell id="wbN2S33Gr776LBhfB90m-4" value="上报 lng,lat,status" style="text;html=1;align=center;verticalAlign=middle;resizable=0;points=[];;labelBackgroundColor=#ffffff;" parent="wbN2S33Gr776LBhfB90m-3" vertex="1" connectable="0">
          <mxGeometry x="-0.1479" y="-2" relative="1" as="geometry">
            <mxPoint as="offset"/>
          </mxGeometry>
        </mxCell>
        <mxCell id="wbN2S33Gr776LBhfB90m-2" value="app" style="rounded=0;whiteSpace=wrap;html=1;" parent="1" vertex="1">
          <mxGeometry x="1990" y="390" width="120" height="60" as="geometry"/>
        </mxCell>
        <mxCell id="wbN2S33Gr776LBhfB90m-10" value="其他有关状态及位置的redis key？" style="shape=document;whiteSpace=wrap;html=1;boundedLbl=1;" parent="1" vertex="1">
          <mxGeometry x="1620" y="270" width="120" height="80" as="geometry"/>
        </mxCell>
      </root>
    </mxGraphModel>
  </diagram>
</mxfile>
